# xmcd
#
# Track frame offsets:
#	300
#	13462
#	31250
#	48487
#	72100
#	97762
#	113937
#	132100
#	151387
#	167075
#
# Disc length: 2443 seconds
#
# Revision: 1
# Processed by: cddbd v1.5.2PL0 Copyright (c) Steve Scherf et al.
# Submitted via: audiograbber 1.83.01
#
DISCID=7e09870a
DTITLE=Joy Fleming - Mit meinen Augen
DYEAR=1991
DGENRE=Pop
TTITLE0=Oh, deine Augen
TTITLE1=Verliebt zu sein
TTITLE2=Mensch, was wird aus den Kindern?
TTITLE3=Könnt ich fliegen
TTITLE4=So wie ein See
TTITLE5=Feuer und Flamme
TTITLE6=Never forget
TTITLE7=Zerbrochene Herzen
TTITLE8=Hey komm rüber
TTITLE9=Es war einmal
EXTD=
EXTT0=
EXTT1=
EXTT2=
EXTT3=
EXTT4=
EXTT5=
EXTT6=
EXTT7=
EXTT8=
EXTT9=
PLAYORDER=
